<svg width="14" height="14" viewBox="0 0 14 14" fill="none" xmlns="http://www.w3.org/2000/svg">
<path d="M12.44 2.07333C11.7322 1.36534 10.7938 0.934884 9.7955 0.860254C8.79716 0.785624 7.8052 1.07177 7.00001 1.66667C6.15178 1.03576 5.09601 0.749674 4.04529 0.866025C2.99458 0.982376 2.02697 1.49252 1.33733 2.29372C0.647682 3.09493 0.287226 4.12768 0.328545 5.18401C0.369864 6.24034 0.809889 7.24178 1.56001 7.98667L6.52668 12.9533C6.58865 13.0158 6.66239 13.0654 6.74363 13.0993C6.82487 13.1331 6.912 13.1505 7.00001 13.1505C7.08802 13.1505 7.17516 13.1331 7.2564 13.0993C7.33764 13.0654 7.41137 13.0158 7.47334 12.9533L12.44 7.98667C12.8284 7.59848 13.1366 7.13756 13.3468 6.63024C13.5571 6.12293 13.6653 5.57915 13.6653 5.03C13.6653 4.48085 13.5571 3.93707 13.3468 3.42976C13.1366 2.92244 12.8284 2.46152 12.44 2.07333ZM11.5 7.04667L7.00001 11.54L2.50001 7.04667C2.10346 6.64847 1.83333 6.14203 1.7235 5.59089C1.61367 5.03976 1.66903 4.46846 1.88265 3.94866C2.09626 3.42887 2.45861 2.98373 2.92424 2.66908C3.38987 2.35443 3.93805 2.18429 4.50001 2.18C5.25075 2.18184 5.97008 2.48156 6.50001 3.01333C6.56199 3.07582 6.63572 3.12542 6.71696 3.15926C6.7982 3.19311 6.88534 3.21053 6.97334 3.21053C7.06135 3.21053 7.14849 3.19311 7.22973 3.15926C7.31097 3.12542 7.3847 3.07582 7.44668 3.01333C7.99223 2.54059 8.69701 2.29276 9.41837 2.32002C10.1397 2.34727 10.8238 2.64757 11.3321 3.16013C11.8405 3.67269 12.1351 4.35923 12.1563 5.08079C12.1776 5.80236 11.9239 6.50506 11.4467 7.04667H11.5Z" fill="#151875"/>
</svg>
