<svg width="14" height="14" viewBox="0 0 14 14" fill="none" xmlns="http://www.w3.org/2000/svg">
<path d="M9 5.66667H7V3.66667C7 3.48986 6.92976 3.32029 6.80473 3.19526C6.67971 3.07024 6.51014 3 6.33333 3C6.15652 3 5.98695 3.07024 5.86193 3.19526C5.7369 3.32029 5.66666 3.48986 5.66666 3.66667V5.66667H3.66666C3.48985 5.66667 3.32028 5.73691 3.19526 5.86193C3.07024 5.98695 3 6.15652 3 6.33333C3 6.51015 3.07024 6.67971 3.19526 6.80474C3.32028 6.92976 3.48985 7 3.66666 7H5.66666V9C5.66666 9.17681 5.7369 9.34638 5.86193 9.47141C5.98695 9.59643 6.15652 9.66667 6.33333 9.66667C6.51014 9.66667 6.67971 9.59643 6.80473 9.47141C6.92976 9.34638 7 9.17681 7 9V7H9C9.17681 7 9.34638 6.92976 9.4714 6.80474C9.59643 6.67971 9.66666 6.51015 9.66666 6.33333C9.66666 6.15652 9.59643 5.98695 9.4714 5.86193C9.34638 5.73691 9.17681 5.66667 9 5.66667ZM13.4733 12.5267L11 10.0733C11.9601 8.87627 12.425 7.35687 12.2992 5.82753C12.1734 4.2982 11.4664 2.87519 10.3237 1.8511C9.18091 0.827005 7.6892 0.279674 6.15528 0.321648C4.62136 0.363622 3.16181 0.991709 2.07676 2.07676C0.991705 3.16182 0.363618 4.62136 0.321644 6.15528C0.279671 7.68921 0.827001 9.18091 1.85109 10.3237C2.87519 11.4664 4.2982 12.1734 5.82753 12.2992C7.35686 12.425 8.87627 11.9601 10.0733 11L12.5267 13.4533C12.5886 13.5158 12.6624 13.5654 12.7436 13.5993C12.8249 13.6331 12.912 13.6505 13 13.6505C13.088 13.6505 13.1751 13.6331 13.2564 13.5993C13.3376 13.5654 13.4114 13.5158 13.4733 13.4533C13.5935 13.329 13.6607 13.1629 13.6607 12.99C13.6607 12.8171 13.5935 12.651 13.4733 12.5267ZM6.33333 11C5.41035 11 4.5081 10.7263 3.74067 10.2135C2.97324 9.70075 2.3751 8.97191 2.02189 8.11919C1.66868 7.26647 1.57627 6.32816 1.75633 5.42291C1.9364 4.51767 2.38085 3.68615 3.0335 3.0335C3.68614 2.38086 4.51766 1.9364 5.42291 1.75634C6.32815 1.57627 7.26646 1.66869 8.11919 2.0219C8.97191 2.37511 9.70074 2.97324 10.2135 3.74067C10.7263 4.5081 11 5.41035 11 6.33333C11 7.57101 10.5083 8.758 9.63316 9.63317C8.75799 10.5083 7.57101 11 6.33333 11Z" fill="#151875"/>
</svg>
