<svg width="13" height="12" viewBox="0 0 13 12" fill="none" xmlns="http://www.w3.org/2000/svg">
<path d="M0.666656 0.833336C0.666656 0.700728 0.719335 0.573551 0.813103 0.479782C0.906871 0.386014 1.03405 0.333336 1.16666 0.333336H1.53866C2.17199 0.333336 2.55199 0.759336 2.76866 1.15534C2.91332 1.41934 3.01799 1.72534 3.09999 2.00267C3.12217 2.00092 3.14441 2.00003 3.16666 2H11.4987C12.052 2 12.452 2.52934 12.3 3.062L11.0813 7.33467C10.9721 7.71791 10.7409 8.05511 10.4228 8.29521C10.1048 8.53531 9.71716 8.66525 9.31866 8.66534H5.35332C4.95165 8.66535 4.56109 8.53345 4.24167 8.28992C3.92225 8.04638 3.69166 7.70468 3.58532 7.31734L3.07866 5.46934L2.23866 2.63734L2.23799 2.632C2.13399 2.254 2.03666 1.9 1.89132 1.636C1.75199 1.37934 1.63999 1.33334 1.53932 1.33334H1.16666C1.03405 1.33334 0.906871 1.28066 0.813103 1.18689C0.719335 1.09312 0.666656 0.965944 0.666656 0.833336ZM4.04866 5.22667L4.54932 7.05267C4.64932 7.414 4.97799 7.66534 5.35332 7.66534H9.31866C9.49979 7.66533 9.676 7.60631 9.82059 7.49721C9.96518 7.3881 10.0703 7.23485 10.12 7.06067L11.278 3H3.38999L4.03932 5.19134L4.04866 5.22667Z" fill="#151875"/>
<path d="M6.33332 10.6667C6.33332 11.0203 6.19285 11.3594 5.9428 11.6095C5.69275 11.8595 5.35361 12 4.99999 12C4.64637 12 4.30723 11.8595 4.05718 11.6095C3.80713 11.3594 3.66666 11.0203 3.66666 10.6667C3.66666 10.313 3.80713 9.97391 4.05718 9.72386C4.30723 9.47381 4.64637 9.33334 4.99999 9.33334C5.35361 9.33334 5.69275 9.47381 5.9428 9.72386C6.19285 9.97391 6.33332 10.313 6.33332 10.6667ZM5.33332 10.6667C5.33332 10.5783 5.2982 10.4935 5.23569 10.431C5.17318 10.3685 5.0884 10.3333 4.99999 10.3333C4.91158 10.3333 4.8268 10.3685 4.76429 10.431C4.70178 10.4935 4.66666 10.5783 4.66666 10.6667C4.66666 10.7551 4.70178 10.8399 4.76429 10.9024C4.8268 10.9649 4.91158 11 4.99999 11C5.0884 11 5.17318 10.9649 5.23569 10.9024C5.2982 10.8399 5.33332 10.7551 5.33332 10.6667Z" fill="#151875"/>
<path d="M11 10.6667C11 11.0203 10.8595 11.3594 10.6095 11.6095C10.3594 11.8595 10.0203 12 9.66665 12C9.31302 12 8.97389 11.8595 8.72384 11.6095C8.47379 11.3594 8.33331 11.0203 8.33331 10.6667C8.33331 10.313 8.47379 9.97391 8.72384 9.72386C8.97389 9.47381 9.31302 9.33334 9.66665 9.33334C10.0203 9.33334 10.3594 9.47381 10.6095 9.72386C10.8595 9.97391 11 10.313 11 10.6667ZM9.99998 10.6667C9.99998 10.5783 9.96486 10.4935 9.90235 10.431C9.83984 10.3685 9.75505 10.3333 9.66665 10.3333C9.57824 10.3333 9.49346 10.3685 9.43094 10.431C9.36843 10.4935 9.33331 10.5783 9.33331 10.6667C9.33331 10.7551 9.36843 10.8399 9.43094 10.9024C9.49346 10.9649 9.57824 11 9.66665 11C9.75505 11 9.83984 10.9649 9.90235 10.9024C9.96486 10.8399 9.99998 10.7551 9.99998 10.6667Z" fill="#151875"/>
</svg>
