<svg width="12" height="12" viewBox="0 0 12 12" fill="none" xmlns="http://www.w3.org/2000/svg">
<path d="M4.66665 1.33334H1.99998C1.63179 1.33334 1.33331 1.63182 1.33331 2.00001V4.66668C1.33331 5.03487 1.63179 5.33334 1.99998 5.33334H4.66665C5.03484 5.33334 5.33331 5.03487 5.33331 4.66668V2.00001C5.33331 1.63182 5.03484 1.33334 4.66665 1.33334Z" fill="#151875"/>
<path d="M10 1.33334H7.33335C6.96516 1.33334 6.66669 1.63182 6.66669 2.00001V4.66668C6.66669 5.03487 6.96516 5.33334 7.33335 5.33334H10C10.3682 5.33334 10.6667 5.03487 10.6667 4.66668V2.00001C10.6667 1.63182 10.3682 1.33334 10 1.33334Z" fill="#151875"/>
<path d="M4.66665 6.66666H1.99998C1.63179 6.66666 1.33331 6.96513 1.33331 7.33332V9.99999C1.33331 10.3682 1.63179 10.6667 1.99998 10.6667H4.66665C5.03484 10.6667 5.33331 10.3682 5.33331 9.99999V7.33332C5.33331 6.96513 5.03484 6.66666 4.66665 6.66666Z" fill="#151875"/>
<path d="M10 6.66666H7.33335C6.96516 6.66666 6.66669 6.96513 6.66669 7.33332V9.99999C6.66669 10.3682 6.96516 10.6667 7.33335 10.6667H10C10.3682 10.6667 10.6667 10.3682 10.6667 9.99999V7.33332C10.6667 6.96513 10.3682 6.66666 10 6.66666Z" fill="#151875"/>
</svg>
