<svg width="723" height="692" viewBox="0 0 723 692" fill="none" xmlns="http://www.w3.org/2000/svg">
<path d="M620.944 463.961C596.909 500.42 555.701 521.85 512.032 521.85H149.592C76.7416 521.85 35.8906 436.674 83.1366 388.712C130.382 340.749 88.6511 299.785 161.524 261.324C232.124 224.063 256.229 303.488 321.267 251.518C386.307 199.55 480.995 204.452 501.8 257.402C522.603 310.352 517.701 328.986 561.826 340.752C605.951 352.516 649.095 419.194 622.62 461.358C622.069 462.236 621.51 463.104 620.944 463.961Z" fill="#CBD5FC"/>
<path d="M604.832 478.742C566.65 481.98 540.911 553.55 445.462 510.532C445.462 510.532 455.943 479.289 502.894 459.813C549.844 440.338 604.832 478.742 604.832 478.742Z" fill="#C8DDF5"/>
<path d="M458.496 505.173C468.46 499.992 478.797 495.525 489.353 491.64C491.979 490.631 494.642 489.723 497.314 488.839C499.973 487.917 502.668 487.101 505.358 486.269C508.038 485.405 510.767 484.704 513.486 483.966C514.846 483.604 516.202 483.22 517.569 482.877L521.679 481.891L525.8 480.946L529.95 480.129L534.1 479.314C535.485 479.049 536.882 478.843 538.276 478.63C541.067 478.219 543.848 477.751 546.659 477.482C549.467 477.191 552.26 476.785 555.084 476.681C566.329 475.864 577.698 476.048 588.786 477.925C577.555 477.653 566.42 478.318 555.376 479.679L553.304 479.915L551.242 480.231L547.113 480.834C544.357 481.187 541.626 481.74 538.89 482.235C537.526 482.502 536.149 482.694 534.786 482.978L530.701 483.825L526.617 484.675L522.557 485.648L518.488 486.578C517.134 486.902 515.79 487.269 514.441 487.611L510.397 488.657C509.047 488.999 507.717 489.417 506.37 489.771C503.682 490.508 500.99 491.229 498.327 492.058C495.66 492.869 492.975 493.629 490.318 494.482C479.659 497.802 469.095 501.458 458.496 505.173Z" fill="#ACBED3"/>
<path d="M609.505 356.944C562.917 390.246 584.468 501.848 428.998 519.421C428.998 519.421 418.619 471.276 464.081 410.423C509.544 349.569 609.505 356.944 609.505 356.944Z" fill="#6C83DC"/>
<path d="M439.341 505.974C446.123 491.284 454.491 477.312 463.908 464.087C473.296 450.834 483.823 438.363 495.288 426.813C506.767 415.286 519.205 404.654 532.665 395.477C546.084 386.303 560.56 378.409 576 373.49C561.67 381.005 548.391 389.937 535.777 399.733C523.213 409.583 511.33 420.266 500.074 431.58C488.809 442.892 478.194 454.848 468.09 467.263C458.018 479.712 448.552 492.671 439.341 505.974Z" fill="#C8DDF5"/>
<path d="M106.942 468.795C144.802 474.714 165.435 547.919 263.677 511.728C263.677 511.728 255.422 479.824 209.96 457.092C164.498 434.359 106.942 468.795 106.942 468.795Z" fill="#C8DDF5"/>
<path d="M251.053 505.465C240.742 501.014 230.461 496.623 220.063 492.559C217.472 491.522 214.848 490.575 212.245 489.578C209.647 488.563 207.01 487.655 204.383 486.731C203.063 486.283 201.767 485.772 200.444 485.336L196.483 484.008C195.162 483.571 193.847 483.111 192.52 482.692L188.527 481.477L184.545 480.221L180.53 479.086L176.515 477.952C175.176 477.573 173.816 477.285 172.474 476.922C169.779 476.236 167.095 475.492 164.37 474.946L160.294 474.054L158.258 473.593L156.209 473.213C145.288 471.076 134.227 469.629 123.006 469.109C134.197 468.02 145.552 468.635 156.711 470.241C159.521 470.545 162.278 471.145 165.058 471.635C167.844 472.101 170.584 472.764 173.34 473.371C174.716 473.68 176.094 473.984 177.457 474.346L181.539 475.452L185.622 476.559L189.666 477.791L193.697 479.065C195.036 479.502 196.361 479.982 197.693 480.438C200.354 481.365 203.025 482.259 205.639 483.308C208.264 484.328 210.894 485.331 213.482 486.438C216.084 487.508 218.677 488.601 221.226 489.793C231.482 494.412 241.478 499.595 251.053 505.465Z" fill="#ACBED3"/>
<path d="M132.109 351.819C174.06 386.519 146.151 490.912 292.414 517.985C292.414 517.985 305.479 473.024 266.439 412.27C227.399 351.516 132.109 351.819 132.109 351.819Z" fill="#6C83DC"/>
<path d="M283.504 504.542C275.599 491.338 267.46 478.439 258.724 465.977C249.954 453.545 240.685 441.508 230.764 430.033C220.852 418.555 210.312 407.629 199.078 397.431C187.795 387.284 175.831 377.9 162.775 369.753C177.12 375.39 190.351 383.821 202.482 393.406C214.657 402.995 225.754 413.909 235.874 425.617C245.978 437.342 255.123 449.887 263.12 463.102C271.147 476.292 278.119 490.125 283.504 504.542Z" fill="#C8DDF5"/>
<path d="M378.821 449.003C373.569 455.24 368.81 465.579 365.856 467.221C362.901 468.862 357.92 469.432 353.212 484.584C348.506 499.734 372.27 497.66 372.27 497.66C372.27 497.66 382.431 491.824 386.535 477.725L396.71 468.698L378.821 449.003Z" fill="#FFA498"/>
<path d="M360.438 495.999C360.438 495.999 368.129 493.494 374.653 486.604C381.202 479.687 382.046 467.38 382.046 467.38L385.182 473.241L391.456 466.536L394.481 466.244L396.71 468.698L386.534 477.725C382.432 491.824 372.27 497.661 372.27 497.661C372.27 497.661 365.719 498.228 360.178 496.578C360.32 496.22 360.438 495.999 360.438 495.999Z" fill="#C57E75"/>
<path d="M414.449 394.739C407.169 400.06 402.826 403.921 399.207 411.159C395.588 418.398 372.905 444.404 371.459 446.724C370.01 449.043 384.205 473.655 395.567 479.687C395.567 479.687 412.72 459.9 422.613 452.421C432.505 444.94 429.128 418.398 424.543 409.47C419.958 400.542 414.449 394.739 414.449 394.739Z" fill="#DC466F"/>
<path d="M414.183 442.63V427.856C414.183 427.856 416.109 427.085 417.611 432.071C418.211 434.066 418.165 436.164 417.898 437.969L428.941 429.664C429.398 438.961 427.905 448.42 422.613 452.421C412.719 459.9 395.567 479.687 395.567 479.687C392.635 478.131 389.517 475.334 386.526 472.006C393.51 465.052 406.761 451.628 414.183 442.63Z" fill="#D12050"/>
<path d="M343.619 491.824C341.731 492.414 340.335 493.317 340.335 495.696C340.335 498.076 340.746 501.851 341.648 503.327C342.551 504.805 347.212 505.69 347.212 505.69C347.212 505.69 346.9 495.86 345.915 494.055C344.93 492.249 343.619 491.824 343.619 491.824Z" fill="#FFA498"/>
<path d="M341.647 503.328C341.394 502.913 341.183 502.306 341.005 501.609C342.016 502.604 342.356 502.611 343.594 502.741L347.133 503.845C347.188 504.951 347.211 505.691 347.211 505.691C347.211 505.691 342.55 504.805 341.647 503.328Z" fill="#C57E75"/>
<path d="M348.13 488.229C345.832 488.475 343.534 490.199 343.534 492.578C343.534 494.957 342.715 501.605 343.534 502.672C344.356 503.738 348.377 506.774 349.771 507.021C351.167 507.267 353.536 506.856 353.212 506.117C352.89 505.38 348.13 488.229 348.13 488.229Z" fill="#FFA498"/>
<path d="M343.187 500.885C344.928 502.851 349.383 502.675 349.383 502.675C349.383 502.675 351.341 504.766 351.583 505.438C351.728 505.843 352.53 506.377 352.639 506.791C351.904 507.071 350.646 507.176 349.772 507.021C348.403 506.779 344.52 503.861 343.595 502.742L343.187 500.89V500.885Z" fill="#C57E75"/>
<path d="M356.74 484.303C349.69 484.701 348.376 485.357 348.131 488.229C347.884 491.101 348.048 499.471 348.95 501.606C349.854 503.738 350.346 505.626 351.495 506.774C352.644 507.923 354.363 507.928 354.363 507.928C354.363 507.928 358.224 502.262 358.388 497.502C358.552 492.743 356.74 484.303 356.74 484.303Z" fill="#FFA498"/>
<path d="M352.685 503.212C353.043 501.264 353.835 499.186 353.936 492.663C353.974 490.213 356.246 503.009 355.232 506.521C354.726 507.393 354.363 507.928 354.363 507.928C354.363 507.928 352.644 507.923 351.496 506.774C350.346 505.625 349.855 503.737 348.951 501.605C348.893 501.465 348.837 501.298 348.785 501.11C349.245 502.307 350.706 503.092 352.685 503.212Z" fill="#C57E75"/>
<path d="M372.175 498.733C371.731 502.654 366.595 504.066 366.02 506.035C365.446 508.005 365.855 509.811 364.871 510.302C363.886 510.796 359.784 508.498 359.948 505.873C359.948 505.873 358.88 508.087 356.501 508.498C354.121 508.908 353.547 507.17 353.957 504.551C354.367 501.933 354.286 500.537 354.204 497.42C354.121 494.301 353.382 491.43 354.778 487.982C356.173 484.537 358.06 481.5 361.835 482.075C365.61 482.649 367.908 487.408 369.959 489.05C372.01 490.69 372.666 494.384 372.175 498.733Z" fill="#FFA498"/>
<path d="M359.948 505.872C360.178 500.885 360.437 496.803 360.437 495.999C360.437 495.194 360.178 489.901 362.059 489.58C362.344 489.531 366.482 492.153 366.562 493.922C366.643 495.692 366.562 498.87 365.276 499.774C363.989 500.68 359.948 505.872 359.948 505.872Z" fill="#C57E75"/>
<path d="M530.953 405.368C523.474 395.878 520.899 394.912 513.178 390.409C505.457 385.904 476.18 374.483 470.147 373.035C464.115 371.587 439.785 382.928 431.802 386.547C423.819 390.167 413.661 393.728 411.93 397.256C406.136 409.063 417.611 425.798 417.671 460.867C417.703 479.233 421.888 520.536 421.888 520.536C421.888 520.536 513.822 520.708 515.109 518.776C516.396 516.846 519.613 450.893 521.222 437.38C522.831 423.868 530.953 405.368 530.953 405.368Z" fill="#DC466F"/>
<path d="M412.267 415.744C411.578 413.523 411.17 411.262 410.824 408.993C410.51 406.718 410.262 404.435 410.296 402.11C410.988 404.33 411.397 406.591 411.739 408.861C412.052 411.136 412.3 413.419 412.267 415.744Z" fill="#D12050"/>
<path d="M446.646 401.93C443.094 400.603 434.679 402.911 433.141 403.446C431.602 403.981 434.045 397.406 434.95 396.592C435.854 395.777 437.303 393.881 440.078 394.739C442.853 395.597 445.185 398.773 445.587 399.819C445.989 400.864 446.646 401.93 446.646 401.93Z" fill="#D12050"/>
<path d="M476.241 407.419C474.975 407.359 467.584 403.961 465.816 403.116C464.046 402.271 456.03 401.877 450.647 403.381C450.647 403.381 461.01 396.38 467.042 396.44C473.074 396.501 475.367 398.672 475.849 400.603C476.332 402.533 476.241 407.419 476.241 407.419Z" fill="#D12050"/>
<path d="M436.721 505.747C437.708 504.781 497.747 506.713 498.954 500.439C500.16 494.166 500.991 482.755 500.991 482.755C493.762 486.616 483.269 485.009 483.269 485.009C490.267 482.724 500.401 471.242 500.883 467.864C502.371 457.457 496.81 428.766 496.81 428.766L500.883 420.57L505.65 417.915C505.65 417.915 514.687 422.416 522.414 430.695C521.893 432.987 521.476 435.245 521.222 437.38C519.705 450.12 516.759 509.463 515.349 517.829C496.752 518.515 463.042 519.749 440.485 520.524C429.556 520.55 421.888 520.536 421.888 520.536C421.888 520.536 421.747 515.103 421.418 507.312C427.711 506.944 436.109 506.345 436.721 505.747Z" fill="#D12050"/>
<path d="M448.913 403.678C455.391 402.898 465.804 397.284 469.906 399.215C474.008 401.145 474.973 406.091 475.817 406.936C476.662 407.78 480.281 403.557 480.281 393.183C480.281 382.806 480.6 372.182 472.96 370.739C465.322 369.294 445.535 376.774 441.554 379.79C437.573 382.806 435.883 385.862 434.798 388.798C433.712 391.734 430.817 403.557 432.144 403.678C433.47 403.8 437.211 396.078 439.986 395.836C442.76 395.595 447.159 403.89 448.913 403.678Z" fill="#DC466F"/>
<path d="M445.228 394.39C443.576 390.469 441.767 387.03 441.827 384.316C441.888 381.6 442.49 379.731 445.507 378.887C448.522 378.042 449.79 379.67 449.971 383.773C450.151 387.874 445.228 394.39 445.228 394.39Z" fill="#D12050"/>
<path d="M468.879 387.079C475.185 381.36 475.899 374.965 475.307 373.638C474.714 372.311 472.11 371.345 472.11 371.345C472.11 371.345 471.084 375.508 471.688 376.534C472.29 377.558 468.879 387.079 468.879 387.079Z" fill="#D12050"/>
<path d="M458.84 400.909C460.377 400.218 461.98 399.681 463.615 399.236C465.258 398.837 466.945 398.518 468.699 398.632C469.564 398.697 470.493 398.886 471.267 399.498C471.95 400.142 472.468 400.724 473.048 401.385C474.197 402.69 474.989 404.274 475.717 405.763C475.878 406.106 476.132 406.51 476.244 406.546C476.257 406.551 476.251 406.572 476.381 406.49C476.49 406.414 476.617 406.282 476.732 406.138C477.203 405.536 477.588 404.785 477.964 404.053C478.724 402.61 479.131 401.008 479.454 399.378C479.769 397.747 479.95 396.082 480.067 394.413C480.21 392.743 480.258 391.065 480.28 389.382C480.612 392.732 480.618 396.125 480.153 399.496C479.928 401.176 479.507 402.873 478.748 404.439C478.374 405.207 477.994 405.966 477.439 406.7C477.292 406.882 477.134 407.065 476.901 407.234C476.79 407.318 476.636 407.397 476.453 407.441C476.262 407.487 476.032 407.456 475.861 407.375C475.515 407.202 475.369 406.97 475.229 406.773C475.096 406.571 474.991 406.373 474.892 406.179C474.162 404.651 473.438 403.191 472.376 401.944C471.868 401.326 471.272 400.645 470.749 400.119C470.202 399.664 469.42 399.438 468.629 399.339C467.023 399.148 465.345 399.371 463.713 399.678C462.068 399.967 460.449 400.415 458.84 400.909Z" fill="#D12050"/>
<path d="M443.986 398.744C443.286 398.125 442.591 397.507 441.833 396.993C441.459 396.736 441.075 396.49 440.68 396.321C440.48 396.245 440.288 396.185 440.108 396.162C440.028 396.171 439.943 396.163 439.88 396.184C439.821 396.222 439.786 396.207 439.672 396.292C438.116 397.251 436.906 398.569 435.878 400.077C435.355 400.805 434.897 401.638 434.281 402.393C433.972 402.767 433.645 403.13 433.228 403.453C433.011 403.603 432.791 403.778 432.402 403.824C432.216 403.856 431.955 403.775 431.798 403.635C431.64 403.492 431.561 403.327 431.515 403.188C431.345 402.616 431.4 402.141 431.445 401.656C431.504 401.181 431.588 400.715 431.696 400.257C431.927 399.343 432.182 398.446 432.51 397.569C432.385 398.495 432.219 399.41 432.143 400.331C432.091 400.789 432.056 401.246 432.049 401.696C432.047 402.134 432.056 402.615 432.188 402.928C432.217 403.007 432.262 403.049 432.277 403.06C432.3 403.058 432.277 403.067 432.323 403.054C432.401 403.046 432.583 402.942 432.73 402.814C433.037 402.553 433.327 402.211 433.592 401.853C434.136 401.152 434.572 400.343 435.118 399.551C435.667 398.775 436.268 398.025 436.965 397.356C437.662 396.689 438.468 396.117 439.302 395.676C439.379 395.623 439.573 395.552 439.731 395.508C439.89 395.477 440.046 395.494 440.195 395.503C440.475 395.56 440.718 395.66 440.943 395.779C441.381 396.027 441.755 396.327 442.113 396.642C442.803 397.294 443.439 397.984 443.986 398.744Z" fill="#D12050"/>
<path d="M444.342 370.822C444.357 373.371 444.459 375.913 444.723 378.449C445.374 384.67 444.737 392.875 445.228 394.389C445.777 396.078 449.034 402.11 449.034 402.11C449.034 402.11 454.826 399.456 457.239 396.561C459.651 393.666 462.788 393.518 467.011 389.248C471.234 384.978 474.104 378.196 473.164 372.551C473.044 371.828 472.303 364.602 472.138 357.122C471.975 349.642 464.115 343.958 456.635 343.958C449.155 343.958 444.677 355.057 444.443 362.538C444.347 365.607 444.329 368.491 444.342 370.822Z" fill="#FFA498"/>
<path d="M472.138 357.122C472.303 364.603 473.043 371.829 473.164 372.552C473.455 374.297 473.38 376.152 473.014 378.006C471.359 378.311 450.056 378.825 444.536 376.255C444.411 374.448 444.353 372.637 444.342 370.822C444.329 368.491 444.347 365.608 444.443 362.539C444.543 359.368 445.407 355.549 446.937 352.198L464.461 345.987C468.763 348.282 472.034 352.328 472.138 357.122Z" fill="#C57E75"/>
<path d="M431.219 325.975C419.9 325.975 415.665 334.67 415.665 341.185C415.665 347.034 417.539 356.396 431.219 356.396C438.059 356.396 442.691 349.586 442.691 341.185C442.691 332.785 438.059 325.975 431.219 325.975Z" fill="#524787"/>
<path d="M430.72 329.7C422.173 329.7 418.975 336.265 418.975 341.186C418.975 345.601 420.389 352.672 430.72 352.672C435.886 352.672 439.382 347.53 439.382 341.186C439.382 334.842 435.886 329.7 430.72 329.7Z" fill="#38295C"/>
<path d="M416.94 331.109C417.608 335.075 419.572 336.591 420.449 341.937C421.325 347.283 418.987 355.053 422.474 361.82C425.962 368.587 431.601 377.483 434.859 377.859C438.117 378.235 464.211 373.827 473.016 356.319C475.543 351.293 480.945 331.585 476.323 319.552C471.7 307.519 464.181 296.492 446.805 296.157C429.429 295.823 413.396 310.09 416.94 331.109Z" fill="#FFA498"/>
<path d="M431.472 352.788C432.401 352.809 433.419 352.455 433.878 351.846C434.279 351.314 434.446 350.612 434.327 349.956C432.969 351.075 431.303 351.267 429.632 350.976C429.425 352.223 430.387 352.762 431.472 352.788Z" fill="#C57E75"/>
<path d="M462.211 331.109C461.55 326.984 458.793 324.603 458.793 324.603C458.793 324.603 452.152 321.845 447.014 321.345C441.876 320.844 436.613 319.34 436.613 319.34C436.613 319.34 438.243 323.465 440.999 325.224C440.999 325.224 428.718 324.603 424.834 320.969C424.834 320.969 425.586 323.964 426.338 325.975C426.338 325.975 420.323 325.354 418.443 322.974C418.443 322.974 416.94 328.216 416.94 331.109C416.94 331.109 409.713 321.219 411.551 313.367C413.389 305.514 415.895 302.506 415.895 302.506C415.895 302.506 410.716 303.007 407.875 302.506C407.875 302.506 414.559 296.658 419.571 292.816C424.583 288.972 439.62 288.806 439.62 288.806C439.62 288.806 438.451 284.796 439.787 278.447C439.787 278.447 446.22 287.887 453.029 290.769C459.837 293.651 458.92 293.407 466.139 295.228C473.358 297.05 480.221 301.671 483.103 305.555C485.985 309.44 489.118 313.45 490.998 314.076C490.998 314.076 486.486 313.45 484.231 311.57C484.231 311.57 487.992 320.113 483.021 331.109C478.05 342.104 465.594 338.851 463.179 336.423C460.764 333.996 462.211 331.109 462.211 331.109Z" fill="#4375F1"/>
<path d="M463.179 336.424C460.764 333.997 462.211 331.109 462.211 331.109C461.812 328.614 460.646 326.762 459.787 325.683C461.594 314.726 460.857 303.352 457.647 292.72C459.523 293.482 460.637 293.824 463.352 294.522C466.686 299.536 469.179 305.178 470.896 310.893C473.082 318.17 474.14 326.032 472.101 333.353C471.579 335.229 470.816 337.06 469.852 338.774C466.761 338.515 464.153 337.404 463.179 336.424Z" fill="#9A4234"/>
<path d="M466.581 327.025C466.581 327.025 467.44 299.541 453.029 290.77C453.029 290.77 464.181 289.517 470.572 300.669C476.963 311.822 476.531 321.387 476.37 326.748C476.209 332.108 466.581 327.025 466.581 327.025Z" fill="#524787"/>
<path d="M470.974 325.975C482.293 325.975 486.529 334.67 486.529 341.185C486.529 347.034 484.654 356.396 470.974 356.396C464.134 356.396 459.504 349.586 459.504 341.185C459.504 332.785 464.134 325.975 470.974 325.975Z" fill="#524787"/>
<path d="M464.871 341.186C464.871 333.729 469.794 327.683 475.867 327.683C481.939 327.683 486.528 333.729 486.528 341.186C486.528 348.644 481.939 354.69 475.867 354.69C469.794 354.69 464.871 348.644 464.871 341.186Z" fill="#C22373"/>
<path d="M469.836 341.185C469.836 336.11 473.186 331.996 477.319 331.996C481.451 331.996 484.801 336.11 484.801 341.185C484.801 346.261 481.451 350.375 477.319 350.375C473.186 350.375 469.836 346.261 469.836 341.185Z" fill="#D67AA8"/>
<path d="M442.284 356.396C439.226 358.08 429.235 358.642 428.555 358.548C427.875 358.455 429.271 366.041 431.717 366.321C434.165 366.603 439.058 365.947 441.098 363.982C443.136 362.018 442.284 356.396 442.284 356.396Z" fill="#C57E75"/>
<path d="M440.935 338.262C440.935 336.878 441.618 335.756 442.46 335.756C443.303 335.756 443.985 336.878 443.985 338.262C443.985 339.646 443.303 340.768 442.46 340.768C441.618 340.768 440.935 339.646 440.935 338.262Z" fill="#471052"/>
<path d="M423.491 339.431C423.491 338.047 424.077 336.925 424.802 336.925C425.525 336.925 426.112 338.047 426.112 339.431C426.112 340.815 425.525 341.937 424.802 341.937C424.077 341.937 423.491 340.815 423.491 339.431Z" fill="#471052"/>
<path d="M449.472 328.491C448.431 327.918 447.308 327.522 446.158 327.191C445.002 326.881 443.802 326.699 442.586 326.655C441.376 326.595 440.096 326.561 438.925 327.014C437.75 327.419 436.685 328.157 435.9 329.129L435.989 329.279C437.249 329.143 438.288 328.834 439.386 328.688C440.459 328.527 441.5 328.136 442.621 328.045C444.839 327.857 447.165 328.032 449.402 328.65L449.472 328.491Z" fill="#471052"/>
<path d="M419.081 331.73C419.625 331.519 420.197 331.387 420.766 331.322C421.334 331.245 421.902 331.217 422.464 331.211C423.03 331.202 423.594 331.405 424.145 331.27C424.424 331.207 424.709 331.153 424.999 331.032C425.292 330.933 425.59 330.803 425.911 330.579L425.929 330.406C425.383 329.874 424.766 329.646 424.14 329.533C423.507 329.414 422.88 329.668 422.272 329.834C421.661 329.994 421.063 330.207 420.499 330.495C419.947 330.801 419.405 331.122 418.975 331.594L419.081 331.73Z" fill="#471052"/>
<path d="M436.721 511.694C436.728 512.082 436.185 512.643 434.858 512.643H393.013C388.188 512.643 387.061 510.735 388.509 508.322C389.957 505.908 396.07 500.6 411.191 496.9C426.312 493.2 434.263 501.852 436.721 505.747C438.524 508.605 436.721 511.694 436.721 511.694Z" fill="#524787"/>
<path d="M388.153 509.046C388.986 511.813 420.915 510.371 420.915 510.371C420.915 510.371 417.677 505.997 414.098 505.872C410.519 505.747 408.778 506.991 403.979 507.817C399.179 508.642 402.737 505.864 402.737 505.864C402.737 505.864 399.346 505.112 397.965 504.042C397.965 504.042 405.875 501.706 409.193 501.162C412.509 500.62 420.955 500.981 422.041 501.162C422.809 501.29 426.706 499.027 431.415 500.163C434.045 502.084 435.784 504.26 436.722 505.747C438.524 508.604 436.722 511.693 436.722 511.693C436.728 512.081 436.185 512.643 434.859 512.643H393.014C388.684 512.643 387.339 511.104 388.153 509.046Z" fill="#38295C"/>
<path d="M524.721 485.531C524.721 485.531 494.964 490.132 478.834 493.019C463.555 495.753 450.361 496.94 446.622 496.215C442.881 495.492 430.092 490.787 425.99 489.098C421.888 487.409 413.684 486.443 409.462 487.771C405.239 489.098 401.78 490.545 400.091 490.545C398.403 490.545 398.724 493.281 400.976 493.843C403.229 494.406 405.239 494.326 405.239 494.326C405.239 494.326 397.598 498.509 396.23 498.91C394.864 499.312 396.484 501.805 398.333 501.645C398.333 501.645 396.714 502.61 397.276 503.575C397.84 504.54 401.86 504.54 401.86 504.54C401.86 504.54 396.955 506.954 401.056 507.919C405.159 508.883 410.065 504.299 412.076 503.897C414.087 503.494 418.751 503.737 421.004 505.426C423.256 507.114 432.908 514.917 446.098 510.252C446.098 510.252 535.631 513.879 544.558 513.879C553.486 513.879 558.878 505.989 556.015 490.787C553.153 475.585 547.603 464.245 547.603 464.245L516.717 466.416L524.721 485.531Z" fill="#FFA498"/>
<path d="M412.288 491.909C413.077 491.723 413.705 491.615 414.099 491.59C414.099 491.59 413.334 491.722 412.288 491.909Z" fill="#C57E75"/>
<path d="M405.239 494.326C405.239 494.326 403.228 494.406 400.977 493.843C400.343 493.685 399.869 493.352 399.542 492.959C402.047 494.067 405.13 493.36 406.818 492.958C407.883 492.704 410.499 492.227 412.288 491.909C410.497 492.33 407.872 493.152 405.239 494.326Z" fill="#C57E75"/>
<path d="M405.633 497.945C405.826 497.857 405.99 497.789 406.095 497.756C406.095 497.756 405.921 497.827 405.633 497.945Z" fill="#C57E75"/>
<path d="M396.246 500.702C396.275 500.728 397.158 501.507 399.017 500.697C400.566 500.025 404.324 498.481 405.633 497.945C403.986 498.693 399.522 501.213 398.334 501.645C397.511 501.716 396.736 501.263 396.246 500.702Z" fill="#C57E75"/>
<path d="M400.867 503.656C402.234 503.253 405.09 501.523 406.839 500.697C408.588 499.87 410.821 499.775 410.821 499.775C410.821 499.775 410.157 499.835 408.407 500.697C406.659 501.559 401.861 504.54 401.861 504.54C401.861 504.54 399.281 504.539 397.965 504.042C397.979 504.042 399.505 504.056 400.867 503.656Z" fill="#C57E75"/>
<path d="M426.324 505.626C428.857 507.195 436.337 509.246 440.801 508.402C445.265 507.557 446.231 503.817 446.231 503.817L447.478 507.839C447.478 507.839 509.571 509.609 522.198 509.04C534.681 508.479 554.151 508.195 556.694 500.697C555.996 509.401 551.281 513.879 544.558 513.879C535.63 513.879 446.098 510.252 446.098 510.252C432.907 514.917 423.256 507.114 421.004 505.426C419.131 504.021 415.596 503.619 413.299 503.755H413.3C416.725 502.555 423.79 504.058 426.324 505.626Z" fill="#C57E75"/>
<path d="M524.721 485.531C524.721 485.531 536.354 483.95 538.686 483.709L536.917 476.47L522.198 479.446L524.721 485.531Z" fill="#C57E75"/>
<path d="M555.811 465.268C556.249 466.402 555.971 467.675 555.102 468.523C549.696 473.803 542.597 480.994 535.298 482.1C527.335 483.306 514.063 483.789 513.339 482.1C512.615 480.411 509.962 458.936 505.136 448.078C500.31 437.22 497.173 431.67 495.966 425.396C494.76 419.122 505.618 404.403 510.444 403.196C515.27 401.99 526.37 401.266 530.954 405.369C535.539 409.47 538.917 425.155 544.225 436.979C548.509 446.519 553.892 460.301 555.811 465.268Z" fill="#DC466F"/>
<path d="M525.945 402.986C524.466 402.815 522.99 402.693 521.509 402.66C520.033 402.601 518.555 402.606 517.085 402.692C515.616 402.781 514.153 402.929 512.714 403.188C511.989 403.303 511.28 403.47 510.567 403.63C509.906 403.871 509.222 404.047 508.612 404.429C507.964 404.72 507.4 405.178 506.804 405.575C506.262 406.053 505.683 406.487 505.188 407.023C504.127 408.02 503.234 409.19 502.328 410.345C501.445 411.52 500.643 412.761 499.88 414.028C499.095 415.284 498.398 416.591 497.719 417.914C498.716 415.107 500.095 412.438 501.748 409.935C502.589 408.693 503.501 407.487 504.567 406.407C505.068 405.838 505.682 405.373 506.249 404.864C506.881 404.43 507.475 403.94 508.183 403.611C508.848 403.209 509.615 403.006 510.351 402.754C511.09 402.599 511.825 402.423 512.572 402.327C514.064 402.113 515.564 401.972 517.064 401.986C520.059 401.978 523.051 402.269 525.945 402.986Z" fill="#D12050"/>
<path d="M549.786 469.713C549.747 465.857 541.605 430.513 534.414 410.813C537.471 417.544 540.328 428.299 544.225 436.978C548.509 446.518 553.892 460.301 555.812 465.267C556.249 466.401 555.971 467.675 555.102 468.523C553.032 470.545 550.71 472.847 548.228 474.98C548.414 474.799 549.823 473.313 549.786 469.713Z" fill="#D12050"/>
<path d="M161.657 429.895C161.51 431.084 161.758 432.283 162.336 433.333C164.442 437.162 165.509 441.562 165.371 445.931C165.28 448.81 164.688 451.755 165.473 454.527C166.825 459.309 171.872 462.266 173.496 466.962C174.936 471.126 173.597 476.361 176.589 479.594C177.331 480.395 178.482 481.009 179.497 480.603C180.005 480.399 180.386 479.974 180.749 479.563C184.179 475.666 187.852 470.931 186.794 465.849C185.8 461.074 180.879 457.847 179.947 453.06C179.185 449.149 181.185 444.637 178.943 441.342C178.325 440.432 177.44 439.737 176.764 438.869C174.099 435.447 175.086 429.992 172.015 426.929C171.014 425.93 169.761 425.364 168.396 425.072C165.176 424.383 162.061 426.627 161.657 429.894V429.895Z" fill="#D35E5A"/>
<path d="M181.168 490.562C181.374 488.016 181.462 485.468 181.557 482.914C181.44 480.367 181.305 477.82 181.087 475.274C180.869 472.729 180.583 470.184 180.132 467.654C179.675 465.14 179.07 462.571 178.013 460.207C176.165 455.536 174.672 450.651 173.163 445.81L170.974 438.513C170.075 436.129 169.197 433.74 168.349 431.334C168.722 433.866 169.301 436.35 169.808 438.854L172.002 446.167C173.52 451.033 174.999 455.888 176.893 460.675C177.915 462.964 178.482 465.386 178.936 467.866C179.377 470.343 179.66 472.857 179.876 475.377C180.089 477.899 180.236 480.43 180.334 482.964L181.168 490.562Z" fill="#FFA8A5"/>
<path d="M167.722 438.939C168.142 439.575 168.683 440.052 169.264 440.473C169.563 440.673 169.913 440.804 170.238 440.968C170.568 441.126 170.856 441.339 171.124 441.58L171.24 441.686L171.343 441.528C171.586 441.155 171.881 440.811 172.114 440.434C172.338 440.054 172.574 439.68 172.773 439.287C173.162 438.496 173.451 437.655 173.598 436.745L173.526 436.709C172.889 437.377 172.395 438.114 171.999 438.902C171.806 439.299 171.651 439.713 171.484 440.121C171.324 440.535 171.228 440.979 171.079 441.396L171.299 441.344C170.988 441.159 170.699 440.947 170.451 440.678C170.199 440.417 169.972 440.121 169.693 439.896C169.12 439.465 168.505 439.09 167.771 438.876L167.722 438.939Z" fill="#FFA8A5"/>
<path d="M168.34 447.647C168.778 448.008 169.229 448.397 169.702 448.723C170.174 449.057 170.653 449.379 171.172 449.638C171.695 449.89 172.252 450.089 172.755 450.374C173.263 450.654 173.725 451.007 174.176 451.374L174.335 451.504L174.496 451.293C175.194 450.378 175.792 449.406 176.355 448.416C176.887 447.405 177.359 446.362 177.698 445.244L177.628 445.205C176.846 446.073 176.196 447.016 175.605 447.99C175.047 448.985 174.522 449.998 174.099 451.068L174.419 450.987C173.89 450.741 173.37 450.482 172.893 450.153C172.413 449.828 171.985 449.421 171.523 449.067C171.055 448.721 170.545 448.442 170.025 448.183C169.497 447.93 168.974 447.685 168.358 447.568L168.34 447.647Z" fill="#FFA8A5"/>
<path d="M171.435 459.139C171.914 459.622 172.449 459.979 173.001 460.301C173.545 460.636 174.144 460.859 174.781 461.008C175.416 461.163 175.991 461.443 176.503 461.835C177.015 462.223 177.515 462.65 178.026 462.986L178.412 463.239L178.699 462.808C179.122 462.174 179.507 461.519 179.805 460.815C180.106 460.114 180.371 459.392 180.52 458.608L180.431 458.559C179.847 459.105 179.38 459.715 178.948 460.344C178.514 460.972 178.166 461.648 177.858 462.346L178.531 462.168C177.947 461.847 177.326 461.661 176.712 461.446C176.097 461.235 175.537 460.93 175.032 460.51C174.53 460.083 173.98 459.746 173.375 459.525C172.776 459.293 172.156 459.104 171.477 459.048L171.435 459.139Z" fill="#FFA8A5"/>
<path d="M185.219 491.06C187.21 490.733 194.672 488.346 194.152 486.397C191.914 478.033 189.677 468.544 197.423 464.453C201.152 462.485 205.831 461.484 207.953 457.842C210.14 454.09 208.531 449.321 206.568 445.448C204.606 441.574 202.244 437.428 203.085 433.167C203.965 428.707 208.184 425.415 208.859 420.918C209.78 414.778 203.818 409.831 198.091 407.434C196.143 406.618 194.001 405.921 191.948 406.417C190.481 406.77 189.21 407.711 188.205 408.835C184.182 413.334 184.346 420.122 185.264 426.086C186.182 432.052 187.587 438.351 185.34 443.953C183.745 447.931 180.328 451.673 181.243 455.86C181.61 457.538 182.656 459.002 183.055 460.672C184.13 465.173 180.39 469.23 178.675 473.529C176.464 479.077 177.982 485.856 182.176 490.066C182.973 490.866 184.103 491.243 185.219 491.06Z" fill="#FF7571"/>
<path d="M184.515 491.153C184.976 487.842 185.437 484.543 186.026 481.268C186.167 480.449 186.339 479.634 186.471 478.815C186.595 477.996 186.669 477.169 186.804 476.351C187.051 474.712 187.327 473.078 187.64 471.455C188.272 468.21 189.028 464.979 190.136 461.908C190.693 460.378 191.353 458.881 192.224 457.591C192.657 456.948 193.168 456.377 193.734 455.992C194.479 455.503 195.191 454.872 195.747 454.12C196.895 452.6 197.24 450.667 197.199 448.927C197.161 447.162 196.826 445.476 196.454 443.831C195.687 440.546 194.721 437.374 194.184 434.143C193.639 430.928 193.533 427.635 194.382 424.552C194.643 423.798 194.849 423.032 195.096 422.266C195.349 421.503 195.678 420.762 196.047 420.036C196.791 418.584 197.76 417.232 198.835 415.946C197.518 416.979 196.297 418.173 195.278 419.554C194.767 420.24 194.288 420.963 193.88 421.73C193.459 422.489 193.102 423.297 192.917 424.15C191.988 427.525 192.12 431.058 192.686 434.393C193.245 437.745 194.227 440.967 194.974 444.171C195.338 445.772 195.647 447.38 195.68 448.952C195.714 450.518 195.411 452.048 194.525 453.218C194.087 453.804 193.539 454.302 192.893 454.728C192.078 455.285 191.473 455.995 190.974 456.728C189.979 458.205 189.295 459.789 188.71 461.386C187.555 464.588 186.792 467.872 186.148 471.166C185.831 472.814 185.552 474.468 185.302 476.125C185.188 476.955 185.033 477.779 184.933 478.611C184.848 479.445 184.811 480.284 184.758 481.12C184.577 484.466 184.453 487.809 184.515 491.153Z" fill="#FFA8A5"/>
<path d="M197.734 425.868C197.162 426.068 196.681 426.402 196.236 426.758C195.795 427.12 195.374 427.505 195.063 427.991C194.749 428.473 194.469 428.982 194.066 429.378C193.679 429.789 193.211 430.122 192.763 430.483L193.353 430.52C193.154 430.091 192.908 429.69 192.684 429.278C192.451 428.871 192.218 428.466 191.944 428.088C191.685 427.7 191.389 427.335 191.109 426.964C190.826 426.591 190.507 426.247 190.25 425.852L190.15 425.869C190.129 426.39 190.286 426.874 190.446 427.331C190.621 427.785 190.816 428.225 191.051 428.641C191.271 429.066 191.55 429.452 191.832 429.835C192.123 430.213 192.4 430.595 192.734 430.946L193.103 431.334L193.324 430.982C193.626 430.504 193.917 430.006 194.294 429.588C194.655 429.157 195.146 428.845 195.61 428.514C196.077 428.185 196.445 427.765 196.806 427.338C197.164 426.905 197.498 426.46 197.798 425.947L197.734 425.868Z" fill="#FFA8A5"/>
<path d="M190.499 438.532C190.735 439.102 191.045 439.622 191.389 440.109C191.742 440.59 192.109 441.059 192.531 441.478C192.961 441.888 193.455 442.238 193.917 442.615C194.369 443.001 194.768 443.435 195.131 443.909L195.246 444.06L195.409 443.93C196.011 443.451 196.49 443.014 196.965 442.503C197.415 441.989 197.893 441.501 198.313 440.967C198.735 440.436 199.129 439.884 199.503 439.318C199.881 438.752 200.22 438.162 200.614 437.61L200.556 437.526C199.896 437.839 199.381 438.322 198.87 438.783C198.368 439.257 197.902 439.76 197.47 440.287C197.034 440.812 196.664 441.387 196.259 441.932C195.863 442.465 195.53 443.128 195.155 443.595L195.433 443.616C194.975 443.241 194.561 442.818 194.207 442.343C193.86 441.859 193.55 441.343 193.186 440.88C192.812 440.425 192.387 440.016 191.964 439.607C191.534 439.204 191.077 438.824 190.578 438.471L190.499 438.532Z" fill="#FFA8A5"/>
<path d="M203.807 448.309C203.179 449.046 202.527 449.726 201.861 450.375C201.192 451.025 200.475 451.595 199.777 452.22C199.065 452.825 198.258 453.367 197.345 453.634C196.438 453.919 195.476 453.955 194.549 453.945L194.964 454.237C194.8 453.456 194.558 452.719 194.302 451.974C194.05 451.231 193.728 450.508 193.34 449.819C192.956 449.127 192.499 448.466 191.961 447.869C191.413 447.289 190.78 446.744 190.024 446.473L189.973 446.56C190.545 447.079 190.987 447.677 191.371 448.317C191.761 448.95 192.091 449.621 192.416 450.295L193.347 452.35C193.653 453.04 193.923 453.757 194.191 454.454L194.32 454.791L194.606 454.746C195.594 454.591 196.531 454.257 197.446 453.935C198.351 453.582 199.281 453.272 200.171 452.816C201.071 452.375 201.828 451.694 202.464 450.934C203.097 450.173 203.615 449.307 203.898 448.354L203.807 448.309Z" fill="#FFA8A5"/>
<path d="M185.81 455.791C185.505 456.523 185.401 457.322 185.421 458.113C185.454 458.902 185.579 459.698 185.855 460.443C186.146 461.182 186.573 461.861 187.05 462.477L188.443 464.328L188.542 464.46L188.703 464.346C189.456 463.81 190.314 463.404 191.13 462.978C191.946 462.54 192.793 462.164 193.639 461.805C194.484 461.44 195.328 461.071 196.196 460.745C197.057 460.391 197.943 460.11 198.842 459.772L198.827 459.672C196.908 459.63 194.97 460.037 193.205 460.815C192.32 461.201 191.487 461.697 190.681 462.22C189.878 462.756 189.162 463.401 188.461 464.066L188.721 464.084C188.205 463.54 187.735 462.939 187.434 462.249C187.101 461.575 186.935 460.841 186.706 460.155C186.262 458.769 185.979 457.342 185.909 455.814L185.81 455.791Z" fill="#FFA8A5"/>
<path d="M171.688 512.642H192.992C194.969 512.642 196.65 510.932 196.947 508.619L200.32 482.412C200.69 479.546 198.814 476.963 196.364 476.963H168.315C165.866 476.963 163.99 479.546 164.36 482.412L167.732 508.619C168.03 510.932 169.711 512.642 171.688 512.642Z" fill="#524787"/>
<path d="M168.315 476.965H182.655C180.204 476.965 178.33 479.547 178.698 482.413L182.071 508.621C182.368 510.934 184.05 512.643 186.027 512.643H171.688C169.711 512.643 168.03 510.934 167.732 508.621L164.36 482.413C163.99 479.547 165.866 476.965 168.315 476.965Z" fill="#38295C"/>
<path d="M362.523 505.445H273.422C272.525 505.445 271.797 506.172 271.797 507.07V511.017C271.797 511.915 272.525 512.642 273.422 512.642H362.523V505.445Z" fill="#3A4278"/>
<path d="M385.453 510.409V512.013C385.453 512.361 385.172 512.642 384.825 512.642H362.38C361.682 512.642 361.116 512.076 361.116 511.378V506.701C361.116 505.947 361.773 505.36 362.523 505.445L384.895 509.786C385.213 509.822 385.453 510.09 385.453 510.409Z" fill="#524787"/>
<path d="M206.81 354.005H373.339C376.708 354.005 379.714 356.119 380.856 359.289L417.276 460.429C418.798 465.645 414.982 469.553 408.85 470.214C407.909 470.315 403.436 468.304 396.412 465H247.534C244.165 465 241.159 462.887 240.016 459.717L207.117 368.353C201.555 365.45 198.384 363.791 198.384 363.791C198.384 363.791 196.324 354.005 206.81 354.005Z" fill="#636A98"/>
<path d="M368.125 359.219H201.596C199.232 359.219 197.582 361.565 198.383 363.79L234.803 464.93C235.945 468.1 238.952 470.213 242.321 470.213H408.849C411.216 470.213 412.864 467.867 412.063 465.641L375.644 364.502C374.501 361.332 371.494 359.219 368.125 359.219Z" fill="#838BC0"/>
<path d="M330.53 470.214L323.138 442.797L295.121 470.214H330.53Z" fill="#261B41"/>
<path d="M368.248 453.384L366.107 447.436H368.798L370.939 453.384H368.248Z" fill="#261B41"/>
<path d="M362.579 453.384L360.438 447.436H363.13L365.271 453.384H362.579Z" fill="#261B41"/>
<path d="M356.911 453.384L354.77 447.436H357.461L359.603 453.384H356.911Z" fill="#261B41"/>
<path d="M351.243 453.384L349.102 447.436H351.793L353.934 453.384H351.243Z" fill="#261B41"/>
<path d="M270.729 453.384L268.588 447.436H271.28L273.422 453.384H270.729Z" fill="#261B41"/>
<path d="M265.061 453.384L262.921 447.436H265.612L267.753 453.384H265.061Z" fill="#261B41"/>
<path d="M259.393 453.384L257.251 447.436H259.943L262.085 453.384H259.393Z" fill="#261B41"/>
<path d="M253.724 453.384L251.583 447.436H254.275L256.416 453.384H253.724Z" fill="#261B41"/>
<path d="M274.296 502.868C275.939 498.143 295.867 433.84 295.867 433.84H321.447L323.137 442.796C323.137 442.796 305.986 498.143 304.343 502.868C304.217 503.228 304.098 503.589 303.986 503.952H303.988C302.485 508.572 306.451 508.551 310.916 508.551H356.03V512.642H310.916H280.871C271.831 512.642 272.653 507.592 274.296 502.868Z" fill="#636A98"/>
<path d="M321.448 433.84C321.448 433.84 301.52 498.143 299.877 502.868C298.233 507.592 297.412 512.642 306.451 512.642H276.404C267.365 512.642 268.187 507.592 269.831 502.868C271.474 498.143 291.401 433.84 291.401 433.84H321.448Z" fill="#838BC0"/>
<path d="M315.184 433.84C313.202 433.749 311.22 433.704 309.238 433.639C307.257 433.571 305.275 433.555 303.293 433.513C301.311 433.481 299.329 433.423 297.347 433.422L291.402 433.385L291.07 433.384L290.967 433.705C290.139 436.295 289.322 438.889 288.543 441.494L286.173 449.298C284.647 454.519 283.119 459.738 281.726 464.999C283.556 459.874 285.253 454.707 286.954 449.541L289.422 441.766C290.256 439.178 291.052 436.579 291.836 433.975L291.402 434.295L297.347 434.258C299.329 434.258 301.311 434.2 303.293 434.168C305.275 434.125 307.257 434.11 309.238 434.041C311.22 433.977 313.202 433.931 315.184 433.84Z" fill="#8475D5"/>
<path d="M140.916 528.429H581.982C586.341 528.429 589.875 524.895 589.875 520.535C589.875 516.176 586.341 512.642 581.982 512.642H140.916C136.556 512.642 133.023 516.176 133.023 520.535C133.023 524.895 136.556 528.429 140.916 528.429Z" fill="#A14F58"/>
<path d="M140.916 528.429H581.982C586.341 528.429 589.875 524.895 589.875 520.535H133.023C133.023 524.895 136.556 528.429 140.916 528.429Z" fill="#713349"/>
<path d="M232.88 273.79C232.88 310.456 203.157 340.179 166.49 340.179C129.824 340.179 100.1 310.456 100.1 273.79C100.1 237.124 129.824 207.4 166.49 207.4C203.157 207.4 232.88 237.124 232.88 273.79Z" fill="#AEBAEA"/>
<path d="M261.079 260.81C261.079 282.133 278.364 299.418 299.686 299.418C321.008 299.418 338.293 282.133 338.293 260.81C338.293 239.488 321.008 222.203 299.686 222.203C278.364 222.203 261.079 239.488 261.079 260.81Z" fill="#E6B851"/>
<path d="M280.64 275.924H318.733C320.481 275.924 321.898 274.506 321.898 272.758V248.863C321.898 247.114 320.481 245.697 318.733 245.697H280.64C278.892 245.697 277.474 247.114 277.474 248.863V272.758C277.474 274.506 278.892 275.924 280.64 275.924Z" fill="#6C83DC"/>
<path d="M280.64 275.924H318.733C320.481 275.924 321.898 274.506 321.898 272.758L299.686 258.79L277.474 272.758C277.474 274.506 278.892 275.924 280.64 275.924Z" fill="#C8DDF5"/>
<path d="M280.64 245.697H318.733C320.481 245.697 321.898 247.114 321.898 248.862L299.686 262.83L277.474 248.862C277.474 247.114 278.892 245.697 280.64 245.697Z" fill="#4371D7"/>
<path d="M534.791 316.366C534.791 337.688 552.075 354.974 573.397 354.974C594.719 354.974 612.005 337.688 612.005 316.366C612.005 295.044 594.719 277.759 573.397 277.759C552.075 277.759 534.791 295.044 534.791 316.366Z" fill="#E6B851"/>
<path d="M566.797 317.892C563.506 317.892 560.841 315.225 560.841 311.935C560.841 308.645 563.506 305.978 566.797 305.978C570.087 305.978 572.754 308.645 572.754 311.935C572.754 315.225 570.087 317.892 566.797 317.892ZM584.226 308.817H580.344C579.993 307.285 579.389 305.855 578.579 304.563L581.327 301.816C581.701 301.441 581.701 300.834 581.327 300.459L578.273 297.406C577.899 297.032 577.291 297.032 576.916 297.406L574.169 300.153C572.877 299.342 571.446 298.738 569.915 298.387V294.506C569.915 293.976 569.486 293.546 568.956 293.546H564.638C564.109 293.546 563.679 293.976 563.679 294.506V298.387C562.148 298.738 560.717 299.342 559.424 300.153L556.678 297.406C556.304 297.032 555.695 297.032 555.321 297.406L552.268 300.459C551.894 300.834 551.894 301.441 552.268 301.816L555.015 304.563C554.205 305.855 553.601 307.285 553.249 308.817H549.368C548.838 308.817 548.409 309.247 548.409 309.776V314.094C548.409 314.624 548.838 315.053 549.368 315.053H553.249C553.601 316.584 554.205 318.015 555.015 319.307L552.268 322.054C551.894 322.43 551.894 323.037 552.268 323.411L555.321 326.464C555.695 326.839 556.304 326.839 556.678 326.464L559.424 323.717C560.717 324.527 562.148 325.131 563.679 325.482V329.364C563.679 329.894 564.109 330.323 564.638 330.323H568.956C569.486 330.323 569.915 329.894 569.915 329.364V325.482C571.446 325.131 572.877 324.527 574.169 323.717L576.916 326.464C577.291 326.839 577.899 326.839 578.273 326.464L581.327 323.411C581.701 323.037 581.701 322.43 581.327 322.054L578.579 319.307C579.389 318.015 579.993 316.584 580.344 315.053H584.226C584.757 315.053 585.185 314.624 585.185 314.094V309.776C585.185 309.247 584.757 308.817 584.226 308.817Z" fill="#6C83DC"/>
<path d="M566.797 316.998C564.001 316.998 561.734 314.73 561.734 311.934C561.734 309.138 564.001 306.872 566.797 306.872C569.593 306.872 571.86 309.138 571.86 311.934C571.86 314.73 569.593 316.998 566.797 316.998ZM566.797 303.642C562.217 303.642 558.505 307.355 558.505 311.934C558.505 316.515 562.217 320.226 566.797 320.226C571.376 320.226 575.09 316.515 575.09 311.934C575.09 307.355 571.376 303.642 566.797 303.642Z" fill="#4371D7"/>
<path d="M591.901 330.456C590.221 330.456 588.858 329.094 588.858 327.413C588.858 325.733 590.221 324.371 591.901 324.371C593.581 324.371 594.944 325.733 594.944 327.413C594.944 329.094 593.581 330.456 591.901 330.456ZM600.805 325.82H598.821C598.643 325.038 598.334 324.307 597.92 323.647L599.323 322.244C599.514 322.052 599.514 321.742 599.323 321.551L597.764 319.991C597.573 319.8 597.262 319.8 597.071 319.991L595.667 321.394C595.007 320.98 594.276 320.672 593.494 320.493V318.51C593.494 318.239 593.274 318.02 593.004 318.02H590.798C590.527 318.02 590.307 318.239 590.307 318.51V320.493C589.526 320.672 588.795 320.98 588.135 321.394L586.732 319.991C586.539 319.8 586.229 319.8 586.038 319.991L584.479 321.551C584.288 321.742 584.288 322.052 584.479 322.244L585.882 323.647C585.468 324.307 585.159 325.038 584.981 325.82H582.997C582.726 325.82 582.507 326.04 582.507 326.31V328.516C582.507 328.786 582.726 329.006 582.997 329.006H584.981C585.159 329.788 585.468 330.519 585.882 331.18L584.479 332.583C584.288 332.774 584.288 333.085 584.479 333.276L586.038 334.836C586.229 335.027 586.539 335.027 586.732 334.836L588.135 333.432C588.795 333.846 589.526 334.155 590.307 334.334V336.317C590.307 336.588 590.527 336.808 590.798 336.808H593.004C593.274 336.808 593.494 336.588 593.494 336.317V334.334C594.276 334.155 595.007 333.846 595.667 333.432L597.071 334.836C597.262 335.027 597.573 335.027 597.764 334.836L599.323 333.276C599.514 333.085 599.514 332.774 599.323 332.583L597.92 331.18C598.334 330.519 598.643 329.788 598.821 329.006H600.805C601.076 329.006 601.295 328.786 601.295 328.516V326.31C601.295 326.04 601.076 325.82 600.805 325.82Z" fill="#6C83DC"/>
<path d="M591.902 330C590.473 330 589.315 328.842 589.315 327.414C589.315 325.984 590.473 324.826 591.902 324.826C593.331 324.826 594.488 325.984 594.488 327.414C594.488 328.842 593.331 330 591.902 330ZM591.902 323.177C589.562 323.177 587.666 325.073 587.666 327.414C587.666 329.752 589.562 331.649 591.902 331.649C594.241 331.649 596.138 329.752 596.138 327.414C596.138 325.073 594.241 323.177 591.902 323.177Z" fill="#4371D7"/>
<path d="M360.619 207.013C360.619 228.335 377.904 245.62 399.225 245.62C420.548 245.62 437.833 228.335 437.833 207.013C437.833 185.69 420.548 168.405 399.225 168.405C377.904 168.405 360.619 185.69 360.619 207.013Z" fill="#E3E4EB"/>
<path d="M377.014 196.817H421.439V191.92C421.439 190.234 420.073 188.867 418.386 188.867H380.067C378.381 188.867 377.014 190.234 377.014 191.92V196.817Z" fill="#4371D7"/>
<path d="M402.03 205.392H404.414C404.818 205.392 405.146 205.064 405.146 204.659V202.275C405.146 201.87 404.818 201.543 404.414 201.543H402.03C401.626 201.543 401.297 201.87 401.297 202.275V204.659C401.297 205.064 401.626 205.392 402.03 205.392Z" fill="#6C83DC"/>
<path d="M392.873 205.392H395.256C395.662 205.392 395.989 205.064 395.989 204.659V202.275C395.989 201.87 395.662 201.543 395.256 201.543H392.873C392.468 201.543 392.14 201.87 392.14 202.275V204.659C392.14 205.064 392.468 205.392 392.873 205.392Z" fill="#6C83DC"/>
<path d="M383.715 205.392H386.099C386.503 205.392 386.831 205.064 386.831 204.659V202.275C386.831 201.87 386.503 201.543 386.099 201.543H383.715C383.311 201.543 382.982 201.87 382.982 202.275V204.659C382.982 205.064 383.311 205.392 383.715 205.392Z" fill="#6C83DC"/>
<path d="M411.188 213.277H413.571C413.977 213.277 414.304 212.949 414.304 212.545V210.161C414.304 209.756 413.977 209.429 413.571 209.429H411.188C410.783 209.429 410.455 209.756 410.455 210.161V212.545C410.455 212.949 410.783 213.277 411.188 213.277Z" fill="#6C83DC"/>
<path d="M402.03 213.277H404.414C404.818 213.277 405.146 212.949 405.146 212.545V210.161C405.146 209.756 404.818 209.429 404.414 209.429H402.03C401.626 209.429 401.297 209.756 401.297 210.161V212.545C401.297 212.949 401.626 213.277 402.03 213.277Z" fill="#6C83DC"/>
<path d="M392.873 213.277H395.256C395.662 213.277 395.989 212.949 395.989 212.545V210.161C395.989 209.756 395.662 209.429 395.256 209.429H392.873C392.468 209.429 392.14 209.756 392.14 210.161V212.545C392.14 212.949 392.468 213.277 392.873 213.277Z" fill="#6C83DC"/>
<path d="M383.715 213.277H386.099C386.503 213.277 386.831 212.949 386.831 212.545V210.161C386.831 209.756 386.503 209.429 386.099 209.429H383.715C383.311 209.429 382.982 209.756 382.982 210.161V212.545C382.982 212.949 383.311 213.277 383.715 213.277Z" fill="#6C83DC"/>
<path d="M411.188 221.163H413.571C413.977 221.163 414.304 220.835 414.304 220.43V218.046C414.304 217.641 413.977 217.313 413.571 217.313H411.188C410.783 217.313 410.455 217.641 410.455 218.046V220.43C410.455 220.835 410.783 221.163 411.188 221.163Z" fill="#6C83DC"/>
<path d="M402.03 221.163H404.414C404.818 221.163 405.146 220.835 405.146 220.43V218.046C405.146 217.641 404.818 217.313 404.414 217.313H402.03C401.626 217.313 401.297 217.641 401.297 218.046V220.43C401.297 220.835 401.626 221.163 402.03 221.163Z" fill="#6C83DC"/>
<path d="M392.873 221.163H395.256C395.662 221.163 395.989 220.835 395.989 220.43V218.046C395.989 217.641 395.662 217.313 395.256 217.313H392.873C392.468 217.313 392.14 217.641 392.14 218.046V220.43C392.14 220.835 392.468 221.163 392.873 221.163Z" fill="#6C83DC"/>
<path d="M548.353 226.853C548.353 248.175 531.069 265.46 509.747 265.46C488.425 265.46 471.14 248.175 471.14 226.853C471.14 205.531 488.425 188.245 509.747 188.245C531.069 188.245 548.353 205.531 548.353 226.853Z" fill="#FF7571"/>
<path d="M511.964 249.382V245.771C511.964 245.099 511.42 244.555 510.749 244.555H508.746C508.074 244.555 507.53 245.099 507.53 245.771V249.382C496.797 248.339 488.261 239.802 487.217 229.071H490.828C491.5 229.071 492.044 228.526 492.044 227.855V225.852C492.044 225.18 491.5 224.636 490.828 224.636H487.217C488.261 213.904 496.797 205.367 507.53 204.323V207.935C507.53 208.606 508.074 209.15 508.746 209.15H510.749C511.42 209.15 511.964 208.606 511.964 207.935V204.323C522.696 205.367 531.233 213.904 532.276 224.636H528.665C527.994 224.636 527.449 225.18 527.449 225.852V227.855C527.449 228.526 527.994 229.071 528.665 229.071H532.276C531.233 239.802 522.696 248.339 511.964 249.382ZM509.747 200.41C495.142 200.41 483.303 212.248 483.303 226.853C483.303 241.457 495.142 253.296 509.747 253.296C524.351 253.296 536.19 241.457 536.19 226.853C536.19 212.248 524.351 200.41 509.747 200.41Z" fill="#CC3834"/>
<path d="M491.551 188.596C491.551 186.296 492.171 184.54 493.411 183.326C494.483 182.254 495.891 181.718 497.635 181.718C499.236 181.718 500.599 182.318 501.723 183.519C502.859 184.721 503.428 186.122 503.428 187.724C503.428 189.377 503.059 190.972 502.323 192.509C501.923 193.362 500.986 194.828 499.514 196.907C499.113 197.476 498.519 198.36 497.731 199.562L497.073 200.55C496.646 201.196 496.323 201.706 496.104 202.08C496.001 202.261 495.949 202.371 495.949 202.41L503.137 202.429V206.013H491.493V202.662C491.493 202.584 491.764 202.138 492.306 201.325C492.552 200.95 492.83 200.537 493.14 200.085L494.089 198.709C494.644 197.947 495.516 196.726 496.705 195.047C497.828 193.472 498.668 192.044 499.223 190.766C499.675 189.719 499.901 188.744 499.901 187.84C499.901 187.104 499.695 186.477 499.281 185.961C498.829 185.418 498.248 185.147 497.538 185.147C496.517 185.147 495.794 185.735 495.368 186.91C495.226 187.297 495.155 187.762 495.155 188.305V189.235H491.551V188.596ZM503.614 197.101L510.085 181.718H513.747V197.101H516.091V200.782H513.747V206.013H510.085V200.782H503.614V197.101ZM510.085 197.101V189.526L507.063 197.101H510.085ZM501.626 216.206H504.609L494.476 242.769H491.493L501.626 216.206ZM518.135 217.718V221.399L513.001 242.013H509.417L514.551 221.399H507.13V217.718H518.135Z" fill="#D6C9DB"/>
<path d="M269.338 379.771C270.599 386.106 264.734 391.737 262.898 392.793C261.061 393.848 248.739 398.775 241.336 398.951C233.934 399.127 224.164 383.467 228.162 381.708C232.162 379.948 259.399 378.013 262.39 378.013C265.381 378.013 269.338 379.771 269.338 379.771Z" fill="#FFC6C8"/>
<path d="M249.926 376.43C246.695 395.432 239.022 410.213 236.627 410.477C234.233 410.74 211.229 402.823 204.887 399.919C198.546 397.016 206.834 352.417 210.781 353.203C214.729 353.988 223.381 362.556 230.526 366.665C237.671 370.774 249.926 376.43 249.926 376.43Z" fill="#F9CA45"/>
<path d="M212.036 384.329C214.253 388.132 232.534 397.772 242.602 401.285C240.113 406.897 237.769 410.35 236.627 410.476C234.577 410.702 217.419 404.93 208.549 401.443C209.291 394.381 212.036 384.329 212.036 384.329Z" fill="#C7A237"/>
<path d="M269.365 378.893C269.546 386.432 262.756 387.515 254.626 385.579C246.498 383.644 233.226 365.345 227.317 357.075C221.408 348.805 210.384 334.069 208.105 332.751C205.826 331.43 200.597 330.73 196.124 323.294C191.651 315.859 197.535 300.287 199.649 298.44C201.762 296.592 219.876 302.76 221.981 305.879C224.086 308.996 220.491 325.756 221.129 327.867C221.767 329.979 237.183 347.222 243.914 351.445C250.645 355.668 269.234 373.439 269.365 378.893Z" fill="#FFC6C8"/>
<path d="M208.927 310.881C206.796 309.826 206.281 305.03 207.621 305.876C208.962 306.721 211.306 306.703 214.478 306.658C217.649 306.614 218.95 306.341 218.95 306.341C218.95 306.341 219.275 308.418 219.259 310.121C219.259 310.121 211.058 311.937 208.927 310.881Z" fill="#FF8B8C"/>
<path d="M194.821 311.971C196.113 309.569 197.11 307.748 197.11 307.748L209.571 319.742C212.979 316.787 217.148 314.091 217.148 314.091L218.245 316.046C216.228 319.458 214.472 326.672 214.432 328.431C214.432 328.431 212.519 330.543 211.45 330.719C211.45 330.719 224.781 351.833 233.351 362.214C241.87 372.534 247.705 381.46 251.723 384.329C243.619 379.656 232.567 364.422 227.316 357.075C221.408 348.805 210.384 334.069 208.105 332.75C205.826 331.43 200.597 330.73 196.125 323.294C194.35 320.345 194.218 316.117 194.821 311.971Z" fill="#FF8B8C"/>
<path d="M220.758 313.175C220.606 314.405 208.223 325.14 206.927 326.371C206.83 326.464 205.863 326.605 205.597 326.371C202.302 323.477 187.923 297.365 187.666 296.423C187.426 295.543 196.973 286.561 199.888 284.158C200.284 283.83 201.921 284.029 202.189 284.426C205.13 288.782 220.952 311.585 220.758 313.175Z" fill="#050233"/>
<path d="M219.427 313.175C219.275 314.406 206.893 325.14 205.596 326.371C204.3 327.603 186.613 297.441 186.336 296.423C186.095 295.543 196.724 286.707 199.638 284.303C200.036 283.976 200.589 284.029 200.858 284.426C203.799 288.782 219.622 311.586 219.427 313.175Z" fill="#211E88"/>
<path d="M217.342 311.41C217.201 312.561 205.617 322.603 204.404 323.756C203.192 324.908 186.645 296.691 186.385 295.738C186.161 294.916 196.104 286.649 198.831 284.401C199.202 284.095 199.721 284.143 199.971 284.515C202.724 288.59 217.525 309.923 217.342 311.41Z" fill="#00B1FA"/>
<path d="M209.915 296.693C207.998 295.537 205.644 291.622 205.431 290.301C205.219 288.983 205.351 287.794 206.381 287.53C207.412 287.267 210.586 291.402 212.168 292.633C213.75 293.865 215.675 296.416 214.891 298.132C214.106 299.847 210.592 299.187 210.215 298.924C209.838 298.66 209.915 296.693 209.915 296.693Z" fill="#FFC6C8"/>
<path d="M205.788 287.878C205.18 289.379 209.141 295.399 212.614 297.133L211.324 298.608C211.324 298.608 210.738 298.479 209.985 298.301C209.881 297.633 209.915 296.693 209.915 296.693C207.998 295.537 205.644 291.622 205.431 290.303C205.271 289.302 205.312 288.382 205.788 287.878Z" fill="#FF8B8C"/>
<path d="M214.374 302.776C211.074 301.013 208.487 301.21 206.693 300.485C204.897 299.759 204.571 296.988 205.793 296.526C207.014 296.064 214.45 297.252 216.366 298.11C218.283 298.967 219.199 302.919 219.199 302.919L214.374 302.776Z" fill="#FFC6C8"/>
<path d="M212.929 300.72C214.796 301.072 215.437 300.72 215.437 300.72C215.383 301.449 216.072 301.812 216.847 302.849L214.373 302.776C211.075 301.013 208.487 301.211 206.692 300.485C205.873 300.154 205.377 299.397 205.177 298.628C205.976 300.148 211.073 300.37 212.929 300.72Z" fill="#FF8B8C"/>
<path d="M221.981 305.878C220.22 308.314 211.587 307.259 209.847 306.994C208.107 306.73 207.014 305.631 207.192 304.524C207.55 302.287 218.958 302.684 219.901 303.036C220.842 303.388 221.981 305.878 221.981 305.878Z" fill="#FFC6C8"/>
<path d="M207.255 305.062C208.434 306.234 211.269 306.902 214.364 307.152C217.044 307.368 218.584 307.264 218.94 307.233C215.686 307.751 211.07 307.179 209.847 306.995C208.394 306.775 207.442 305.966 207.255 305.062Z" fill="#FF8B8C"/>
<path d="M181.58 340.008C199.904 349.333 202.91 348.972 210.782 353.202C218.651 357.432 216.309 401.943 215.81 408.805C215.31 415.667 213.414 442.939 214.459 450.329C215.505 457.719 219.578 485.168 221.383 489.389C223.186 493.613 226.626 500.74 221.305 504.961C215.983 509.184 204.723 512.088 180.275 510.505C155.827 508.921 129.473 493.877 128.307 491.766C127.141 489.654 139.994 450.857 140.532 443.467C141.07 436.076 142.529 430.534 143.307 427.103C144.084 423.672 136.306 407.573 135.064 397.279C133.821 386.987 122.638 358.592 124.759 353.39C126.88 348.189 146.357 342.395 159.621 335.78C172.884 329.166 181.58 340.008 181.58 340.008Z" fill="#F9CA45"/>
<path d="M199.747 351.549C196.73 361.464 190.588 370.404 182.415 376.775C172.491 374.342 162.401 369.969 154.275 363.774C163.356 370.463 173.261 376.09 183.864 379.931C192.82 372.596 198.135 363.012 199.747 351.549Z" fill="#C7A237"/>
<path d="M196.006 346.83C192.487 345.328 187.964 343.257 181.58 340.008C181.58 340.008 172.884 329.166 159.621 335.781C155.018 338.075 149.669 340.271 144.555 342.378C152.456 355.82 165.258 366.335 180.036 371.336C187.828 365.199 193.431 356.407 196.006 346.83Z" fill="#FFC6C8"/>
<path opacity="0.2" d="M128.308 491.765C127.142 489.654 139.995 450.857 140.532 443.467C141.07 436.077 142.529 430.534 143.306 427.104C144.084 423.672 136.307 407.572 135.064 397.28C134.849 395.491 134.328 393.148 133.634 390.483L141.896 384.329C146.742 397.845 149.763 421.598 154.355 427.404C158.948 433.211 170.388 435.585 170.388 435.585C170.388 435.585 159.088 438.225 154.161 437.169C154.161 437.169 148.901 458.02 148.841 468.313C148.782 478.606 149.737 494.177 149.859 496.289C149.905 497.077 149.731 499.826 149.494 502.958C137.655 498.271 128.966 492.957 128.308 491.765Z" fill="black"/>
<path d="M161.701 317.031C161.513 328.044 160.785 335.609 158.345 337.722C158.345 337.722 162.542 355.997 179.298 354.436C184.967 353.908 184.427 344.407 181.58 340.009L183.266 326.501L161.701 317.031Z" fill="#FFC6C8"/>
<path d="M159.621 335.78C161.055 332.402 161.55 325.82 161.701 317.03L183.267 326.5L182.185 335.162C178.362 336.877 159.621 335.78 159.621 335.78Z" fill="#FF8B8C"/>
<path d="M102.315 406.103C98.6003 411.206 93.632 423.874 95.4966 429.681C97.3612 435.488 116.593 461.352 125.39 471.029C134.187 480.706 136.183 482.29 137.712 485.457C139.242 488.625 146.736 501.688 148.703 503.669C150.67 505.647 154.215 505.912 154.215 505.912C154.215 505.912 156.864 508.814 161.938 508.287C161.938 508.287 166.357 511.322 169.863 512.113C169.863 512.113 171.02 514.355 172.192 514.553C173.366 514.753 174.858 512.378 172.697 507.627C170.536 502.876 166.985 500.897 166.414 497.862C165.843 494.827 163.095 488.634 163.095 488.634C163.095 488.634 169.264 494.958 173.062 495.354C176.86 495.751 177.37 493.507 175.286 491.659C173.201 489.812 170.499 487.041 167.988 483.477C165.476 479.914 162.35 477.54 157.515 476.88C152.68 476.22 149.288 475.693 148.035 474.769C146.783 473.845 140.462 464.872 136.141 455.194C131.822 445.516 127.952 433.15 116.972 422.291L121.81 413.845L102.315 406.103Z" fill="#FFC6C8"/>
<path d="M169.701 511.509C168.764 508.833 167.044 506.55 165.151 504.519L164.401 503.781C164.179 503.551 163.788 503.26 163.702 503.125C163.323 502.642 162.996 502.007 162.632 501.434C161.935 500.247 161.258 499.038 160.488 497.873C160.855 499.243 161.348 500.551 161.9 501.841C162.172 502.498 162.468 503.107 162.882 503.757C163.201 504.182 163.408 504.27 163.655 504.547L164.361 505.276C165.312 506.25 166.212 507.273 167.119 508.294C168.02 509.324 168.863 510.395 169.701 511.509Z" fill="#FF8B8C"/>
<path d="M161.731 507.373C161.004 505.952 160.142 504.72 159.371 503.426C158.566 502.148 157.851 500.866 157.117 499.456C157.037 501.117 157.65 502.681 158.459 504.024C159.304 505.358 160.38 506.532 161.731 507.373Z" fill="#FF8B8C"/>
<path d="M157.87 507.937C155.476 507.245 154.214 505.912 154.214 505.912C154.214 505.912 150.67 505.647 148.703 503.669C147.899 502.859 146.169 500.192 144.304 497.112C144.344 497.161 146.555 499.563 148.145 501.546C150.384 504.338 153.597 503.414 153.597 503.414L153.168 500.841C153.168 500.841 155.305 506.683 157.87 507.937Z" fill="#FF8B8C"/>
<path d="M95.415 423.229C95.5195 425.636 95.5481 427.551 99.1203 433.87C103.141 440.981 127.301 470.951 132.572 476.494C137.842 482.036 137.686 482.389 140.806 491.145C139.397 488.67 138.222 486.512 137.712 485.457C136.184 482.29 134.187 480.706 125.39 471.028C116.593 461.352 97.361 435.487 95.4964 429.68C94.9549 427.993 95.002 425.72 95.415 423.229Z" fill="#FF8B8C"/>
<path d="M114.353 416.302L112.39 419.574C112.39 419.574 115.046 420.292 116.972 422.29L120.802 415.791L114.353 416.302Z" fill="#FF8B8C"/>
<path d="M137.507 398.411C142.553 388.491 144.573 372.382 140.018 363.904C135.464 355.425 126.868 352.372 124.76 353.39C122.65 354.408 116.94 367.634 111.578 373.739C106.216 379.844 91.5731 396.97 91.1296 398.411C90.6852 399.853 101.712 411.487 122.453 420.031C124.922 421.049 137.507 398.411 137.507 398.411Z" fill="#F9CA45"/>
<g opacity="0.2">
<path d="M122.123 406.103L118.814 412.888C118.814 412.888 135.114 396.548 141.88 384.355C141.06 389.442 139.534 394.427 137.507 398.412C137.507 398.412 124.923 421.05 122.453 420.032C118.904 418.57 115.663 417.016 112.691 415.439L122.123 406.103Z" fill="black"/>
</g>
<path d="M184.513 318.016C183.392 313.476 183.416 308.833 183.145 304.19C182.943 300.718 182.767 297.541 179.616 295.464C177.313 293.947 174.426 293.649 171.716 293.992C164.435 294.916 162.869 302.012 163.426 308.73C163.853 313.872 165.862 318.81 167.857 323.54C165.179 323.422 161.523 322.018 159.923 319.79C160.642 322.722 162.002 325.417 164.129 327.491C156.369 327.357 149.166 322.28 145.055 315.46C140.945 308.642 139.643 300.315 140.081 292.29C140.6 282.765 143.57 273.217 149.461 265.884C161.31 251.135 184.139 249.415 198.04 262.09C202.819 266.447 206.286 272.289 208.019 278.624C210.299 286.951 210.252 295.885 208.476 304.309C207.741 307.796 207.404 310.816 207.058 314.308C206.95 315.391 205.637 327.963 206.397 327.917C201.495 328.215 195.863 327.225 192.542 323.478C194.031 326.052 195.316 328.531 196.805 331.104C190.615 330.075 186.066 324.307 184.513 318.016Z" fill="#A072AE"/>
<path d="M159.076 300.884C156.887 299.589 154.255 298.887 152.224 300.947C149.231 303.982 153.482 318.102 159.935 314.671C159.935 314.671 169.277 327.735 176.133 331.431C182.991 335.126 187.876 333.279 190.443 330.639C193.011 328 201.768 317.173 203.343 305.697C203.905 301.607 203.304 293.557 203.428 291.841C203.813 286.563 205.812 282.229 201.649 278.087C197.443 273.902 191.617 271.37 185.687 271.161C178.218 270.897 170.752 274.254 165.806 279.857C160.341 286.047 159.394 293.038 159.076 300.884Z" fill="#FFC6C8"/>
<path d="M153.284 304.806C153.842 302.219 156.048 301.71 157.689 303.512C159.372 305.36 159.655 311.212 159.222 312.074C158.79 312.936 155.9 312.875 155.352 311.088C154.805 309.302 156.487 308.182 158.112 308.712C158.112 308.712 158.566 306.104 157.238 304.425C155.91 302.746 154.527 303.389 154.187 303.82C153.847 304.251 153.284 304.806 153.284 304.806Z" fill="#FF8B8C"/>
<path d="M171.143 293.362C171.768 292.781 172.431 292.241 173.126 291.728C173.826 291.223 174.571 290.769 175.364 290.4C176.15 290.03 176.974 289.632 177.845 289.565C178.708 289.489 179.575 289.558 180.365 289.897L180.354 290.016C179.931 290.186 179.53 290.294 179.134 290.408L177.971 290.73C177.215 290.952 176.43 291.02 175.663 291.276C174.9 291.529 174.148 291.854 173.408 292.227C172.661 292.591 171.939 293.023 171.21 293.456L171.143 293.362Z" fill="#471052"/>
<path d="M200.332 290.4C199.624 290.025 198.877 289.753 198.099 289.589C197.325 289.415 196.534 289.328 195.739 289.308C194.94 289.291 194.146 289.455 193.357 289.449C192.561 289.452 191.763 289.476 190.889 289.388L190.864 289.274C191.611 288.732 192.462 288.439 193.322 288.272C194.188 288.097 195.054 288.24 195.89 288.365C196.73 288.488 197.549 288.705 198.316 289.024C199.077 289.353 199.802 289.761 200.405 290.302L200.332 290.4Z" fill="#471052"/>
<path d="M178.979 298.002C178.95 296.886 178.388 296.034 177.724 296.099C177.059 296.164 176.545 297.123 176.574 298.239C176.604 299.355 177.166 300.207 177.83 300.141C178.494 300.077 179.008 299.118 178.979 298.002Z" fill="#471052"/>
<path d="M196.607 296.592C196.577 295.475 196.114 294.613 195.57 294.667C195.028 294.721 194.611 295.669 194.641 296.785C194.669 297.901 195.134 298.763 195.677 298.709C196.22 298.656 196.637 297.708 196.607 296.592Z" fill="#471052"/>
<path d="M184.499 308.852C186.028 309.915 188.28 309.892 189.944 308.797C189.754 309.657 189.37 310.495 188.533 310.801C187.696 311.106 186.772 311.016 186.003 310.663C185.234 310.31 184.985 309.537 184.499 308.852Z" fill="#FF8B8C"/>
<path d="M178.383 315.401C182.064 315.46 190.915 314.781 193.801 314.371C192.663 318.1 189.679 321.784 185.511 321.786C181.76 321.789 179.282 318.706 178.383 315.401Z" fill="#C47E75"/>
<path d="M181.76 320.568C183.224 320.117 184.713 320.349 185.313 320.534C185.313 320.534 187.26 319.172 190.089 320.067C188.801 321.106 187.27 321.785 185.512 321.786C184.064 321.787 182.811 321.321 181.76 320.568Z" fill="#FF8485"/>
<path d="M191.303 317.491C187.576 318.653 183.508 318.318 179.998 317.053C179.974 316.503 179.933 315.948 179.89 315.393C183.529 315.316 189.419 314.875 192.572 314.523C192.301 315.555 191.891 316.563 191.303 317.491Z" fill="white"/>
<path d="M162.758 288.737C168.762 288.481 174.719 287.159 180.268 284.85C181.324 282.407 181.36 280.24 181.518 277.585C183.027 280.352 183.924 283.45 184.08 286.599C187.576 286.372 191.089 286.184 194.585 285.958C195.565 283.187 195.684 280.333 195.529 277.399C196.711 280.155 197.304 283.627 197.707 286.598C199.818 285.848 202.492 286.943 204.698 287.337C207.43 281.25 207.251 270.222 201.47 265.606C195.841 261.109 186.062 259.885 179.182 260.881C164.547 263 153.044 275.152 153.953 290.291C154.471 298.928 158.804 307.095 165.017 313.118C161.322 305.749 160.59 296.689 162.758 288.737Z" fill="#A072AE"/>
<path d="M596 195C586.61 195 579 202.61 579 212C579 217.067 581.215 221.618 584.736 224.737C587.741 227.387 591.683 229 596 229C600.324 229 604.266 227.387 607.264 224.73C610.785 221.618 613 217.067 613 212C613 202.61 605.39 195 596 195Z" fill="#CBD5FC"/>
<path d="M605.932 223.351C605.062 222.702 603.483 221.624 601.763 220.828C600.043 220.038 599.032 218.184 599.306 216.317C599.306 216.29 599.313 216.263 599.32 216.23C599.32 216.23 603.235 213.58 602.693 210.996C602.693 210.996 602.813 211.003 602.994 210.989C604.721 210.829 604.828 208.259 603.121 207.984C603.108 207.984 603.088 207.978 603.074 207.978L603.021 207.696C603.543 205.869 604.815 200.334 600.966 200.87C600.966 200.87 598.202 196.298 592.359 198.5C586.509 200.696 588.035 205.936 588.035 205.936L588.758 208.024C587.185 208.413 587.333 210.842 589.006 210.996C589.187 211.009 589.314 211.003 589.314 211.003C588.765 213.586 592.68 216.237 592.68 216.237C592.687 216.27 592.687 216.297 592.694 216.324C592.961 218.191 591.951 220.045 590.237 220.835C588.511 221.631 586.938 222.715 586.068 223.358C585.546 223.739 585.084 224.201 584.729 224.743C587.741 227.387 591.683 229 596 229C600.324 229 604.266 227.387 607.264 224.73C606.916 224.194 606.454 223.733 605.932 223.351Z" fill="#819FDE"/>
<path d="M388.5 20C375.519 20 365 30.5195 365 43.5C365 50.5037 368.062 56.7951 372.929 61.1065C377.083 64.7703 382.532 67 388.5 67C394.477 67 399.926 64.7703 404.071 61.0972C408.938 56.7951 412 50.5037 412 43.5C412 30.5195 401.481 20 388.5 20Z" fill="#CBD5FC"/>
<path d="M402.23 59.1913C401.027 58.2938 398.844 56.8043 396.466 55.7033C394.088 54.6116 392.691 52.0488 393.07 49.4675C393.07 49.4305 393.08 49.3934 393.089 49.3472C393.089 49.3472 398.501 45.6834 397.752 42.1121C397.752 42.1121 397.918 42.1214 398.168 42.1029C400.555 41.8808 400.703 38.3281 398.344 37.9488C398.326 37.9488 398.298 37.9395 398.279 37.9395L398.205 37.5509C398.927 35.0251 400.685 27.3738 395.365 28.1139C395.365 28.1139 391.544 21.7948 383.467 24.8387C375.381 27.8734 377.49 35.1177 377.49 35.1177L378.489 38.0043C376.315 38.5409 376.519 41.8994 378.832 42.1121C379.081 42.1307 379.257 42.1214 379.257 42.1214C378.499 45.6927 383.911 49.3564 383.911 49.3564C383.92 49.4027 383.92 49.4397 383.93 49.4767C384.3 52.058 382.903 54.6208 380.534 55.7125C378.147 56.8135 375.973 58.3123 374.77 59.2005C374.048 59.7279 373.41 60.3663 372.92 61.1157C377.083 64.7702 382.532 66.9999 388.5 66.9999C394.477 66.9999 399.926 64.7702 404.071 61.0972C403.59 60.357 402.952 59.7186 402.23 59.1913Z" fill="#819FDE"/>
<path d="M71 184C76.5236 184 81 188.476 81 194C81 196.98 79.6969 199.657 77.626 201.492C75.8583 203.051 73.5394 204 71 204C68.4567 204 66.1378 203.051 64.374 201.488C62.3032 199.657 61 196.98 61 194C61 188.476 65.4764 184 71 184Z" fill="#CBD5FC"/>
<path d="M65.1574 200.677C65.6693 200.295 66.5984 199.661 67.6102 199.193C68.622 198.728 69.2165 197.638 69.0551 196.539C69.0551 196.524 69.0511 196.508 69.0472 196.488C69.0472 196.488 66.7441 194.929 67.063 193.409C67.063 193.409 66.9921 193.413 66.8858 193.405C65.87 193.311 65.807 191.799 66.811 191.638C66.8189 191.638 66.8307 191.634 66.8385 191.634L66.87 191.468C66.563 190.394 65.8149 187.138 68.0787 187.453C68.0787 187.453 69.7047 184.764 73.1417 186.059C76.5826 187.35 75.685 190.433 75.685 190.433L75.2598 191.661C76.185 191.89 76.0984 193.319 75.1141 193.409C75.0078 193.417 74.933 193.413 74.933 193.413C75.2559 194.933 72.9527 196.492 72.9527 196.492C72.9488 196.512 72.9488 196.528 72.9448 196.543C72.7874 197.642 73.3819 198.732 74.3897 199.197C75.4055 199.665 76.3307 200.303 76.8425 200.681C77.1496 200.905 77.4212 201.177 77.6299 201.496C75.8582 203.051 73.5393 204 71 204C68.4567 204 66.1378 203.051 64.374 201.488C64.5787 201.173 64.8504 200.902 65.1574 200.677Z" fill="#819FDE"/>
<path d="M179.5 531C168.177 531 159 540.177 159 551.5C159 557.61 161.671 563.098 165.917 566.859C169.541 570.055 174.294 572 179.5 572C184.714 572 189.468 570.055 193.083 566.851C197.329 563.098 200 557.61 200 551.5C200 540.177 190.823 531 179.5 531Z" fill="#CBD5FC"/>
<path d="M191.477 565.188C190.428 564.405 188.523 563.106 186.449 562.145C184.375 561.193 183.156 558.957 183.487 556.706C183.487 556.673 183.495 556.641 183.503 556.601C183.503 556.601 188.225 553.405 187.571 550.289C187.571 550.289 187.716 550.297 187.934 550.281C190.016 550.088 190.146 546.988 188.087 546.657C188.071 546.657 188.047 546.649 188.031 546.649L187.966 546.31C188.596 544.107 190.129 537.432 185.489 538.078C185.489 538.078 182.155 532.566 175.109 535.221C168.056 537.868 169.896 544.188 169.896 544.188L170.767 546.706C168.871 547.174 169.048 550.104 171.066 550.289C171.284 550.305 171.437 550.297 171.437 550.297C170.775 553.413 175.497 556.609 175.497 556.609C175.505 556.649 175.505 556.681 175.513 556.714C175.836 558.965 174.617 561.201 172.551 562.153C170.469 563.114 168.572 564.421 167.523 565.196C166.893 565.656 166.336 566.213 165.909 566.867C169.541 570.055 174.294 572 179.5 572C184.714 572 189.468 570.055 193.083 566.851C192.664 566.205 192.107 565.648 191.477 565.188Z" fill="#819FDE"/>
<circle opacity="0.4" cx="382" cy="341" r="297.5" stroke="#8A8FB9"/>
<circle opacity="0.4" cx="381.5" cy="341.5" r="287" stroke="#8A8FB9"/>
<circle cx="674.5" cy="397.5" r="5.5" fill="#819FDE"/>
<circle cx="486.5" cy="572.5" r="5.5" fill="#819FDE"/>
<circle opacity="0.75" cx="382" cy="341" r="252.5" stroke="#CBD5FC"/>
<circle opacity="0.75" cx="388.5" cy="341.5" r="199" stroke="#CBD5FC"/>
<circle cx="635" cy="363" r="9" fill="#819FDE"/>
<circle cx="238" cy="97" r="9" fill="#819FDE"/>
<circle cx="398" cy="683" r="9" fill="#819FDE"/>
<circle cx="40" cy="332" r="9" fill="#819FDE"/>
<path d="M365 567H304V597.806H347.471L343.966 610L365 597.806V567Z" fill="#819FDE"/>
<path d="M573 115H551V127.179H566.678L565.414 132L573 127.179V115Z" fill="#819FDE"/>
<circle cx="381.5" cy="341.5" r="341" stroke="#CBD5FC"/>
<circle cx="283" cy="172" r="3" fill="#819FDE"/>
</svg>
